<?xml version="1.0" standalone="no"?>
<!DOCTYPE svg PUBLIC "-//W3C//DTD SVG 20010904//EN"
 "http://www.w3.org/TR/2001/REC-SVG-20010904/DTD/svg10.dtd">
<svg version="1.0" xmlns="http://www.w3.org/2000/svg"
 width="1100.000000pt" height="1100.000000pt" viewBox="0 0 1100.000000 1100.000000"
 preserveAspectRatio="xMidYMid meet">
<metadata>
Created by potrace 1.11, written by Peter Selinger 2001-2013
</metadata>
<g transform="translate(0.000000,1100.000000) scale(0.100000,-0.100000)"
fill="#000000" stroke="none">
<path d="M5467 9984 c-1 -1 -83 -4 -183 -7 -700 -24 -1453 -252 -2074 -627
-265 -160 -532 -359 -718 -535 -150 -140 -370 -371 -454 -475 -484 -598 -796
-1267 -937 -2010 -11 -58 -22 -125 -26 -150 -3 -25 -8 -56 -10 -70 -2 -14 -7
-43 -9 -65 -3 -22 -9 -67 -13 -100 -4 -33 -8 -235 -8 -450 0 -447 7 -519 75
-865 196 -986 715 -1874 1478 -2529 449 -385 959 -674 1512 -857 309 -102 707
-185 1010 -209 41 -3 98 -8 125 -11 62 -5 509 -5 550 0 17 3 66 7 110 11 204
15 472 59 697 116 952 238 1775 765 2408 1539 25 30 47 57 50 60 26 24 147
203 158 235 19 56 18 164 -2 206 -41 87 -133 154 -222 163 -81 8 -166 -22
-218 -79 -10 -11 -80 -96 -154 -190 -225 -282 -557 -601 -826 -792 -294 -210
-701 -415 -1055 -533 -204 -67 -489 -131 -716 -160 -49 -6 -103 -14 -120 -16
-75 -14 -635 -13 -768 1 -654 66 -1256 280 -1792 638 -111 74 -283 201 -330
244 -11 10 -36 31 -55 47 -223 183 -505 497 -692 771 -348 509 -577 1107 -653
1705 -3 25 -8 61 -10 80 -20 160 -26 512 -13 710 53 762 337 1509 802 2110
150 193 385 444 551 587 555 477 1217 787 1940 906 83 14 182 28 220 32 39 4
84 9 100 11 42 5 572 5 615 0 19 -2 67 -7 105 -11 155 -14 417 -63 595 -111
870 -232 1603 -729 2165 -1469 129 -171 161 -193 280 -200 66 -4 79 -1 134 26
100 50 152 143 146 260 -4 76 -39 140 -157 293 -640 824 -1496 1389 -2484
1635 -193 49 -361 79 -639 115 -50 6 -482 24 -488 20z"/>
<path d="M4915 8740 c-456 -82 -894 -249 -1211 -461 -196 -131 -546 -505 -781
-833 -283 -396 -489 -881 -578 -1361 -37 -198 -40 -246 -39 -560 1 -311 2
-325 32 -495 48 -276 120 -518 222 -750 65 -149 179 -371 230 -450 5 -8 17
-28 26 -45 47 -84 250 -374 341 -486 144 -177 282 -329 478 -524 l161 -160
149 -74 c245 -121 395 -181 599 -241 125 -36 324 -82 338 -78 5 2 -68 60 -163
128 -348 252 -581 451 -864 736 -171 172 -216 220 -329 354 -394 469 -661 957
-775 1421 -31 127 -34 141 -50 244 -20 122 -23 153 -30 270 -30 526 74 1002
324 1482 167 321 370 589 679 898 338 337 646 569 1089 819 215 121 280 163
272 177 -4 5 -9 9 -13 8 -4 0 -52 -9 -107 -19z"/>
<path d="M5770 8737 c-447 -212 -718 -372 -1045 -617 -270 -202 -589 -492
-631 -571 -23 -46 -22 -97 5 -153 33 -67 86 -101 161 -101 73 0 90 11 270 179
31 28 84 76 119 106 35 30 69 60 75 65 26 24 207 166 276 216 217 160 471 314
720 438 215 107 359 166 605 247 211 69 206 62 70 103 -175 51 -475 112 -550
110 -16 0 -50 -10 -75 -22z"/>
<path d="M7045 8314 c-242 -58 -657 -208 -971 -350 -581 -264 -907 -483 -1260
-846 -398 -409 -644 -863 -713 -1313 -19 -129 -22 -159 -21 -285 0 -172 14
-283 55 -451 43 -173 83 -257 134 -283 101 -53 217 -14 262 88 21 49 18 82
-22 226 -135 481 -35 977 288 1427 199 277 500 568 781 754 312 207 869 464
1297 598 210 65 466 124 595 136 36 4 68 10 73 14 17 17 -354 278 -418 294
-11 3 -47 -1 -80 -9z"/>
<path d="M7815 7712 c-49 -5 -449 -101 -595 -143 -526 -149 -1000 -364 -1350
-612 -366 -260 -643 -610 -770 -972 -42 -122 -58 -190 -74 -317 -28 -237 -1
-475 81 -712 128 -368 362 -680 744 -989 63 -51 284 -195 348 -228 102 -51
172 -40 239 36 44 50 57 110 37 169 -19 54 -36 69 -180 165 -177 116 -300 215
-425 341 -128 129 -139 141 -222 257 -72 101 -165 280 -198 383 -59 186 -80
390 -55 553 76 507 478 954 1146 1276 389 188 775 309 1352 425 l257 52 -59
80 c-159 213 -196 244 -276 236z"/>
<path d="M8109 7079 c-175 -31 -388 -77 -523 -115 -273 -75 -561 -190 -624
-248 -86 -78 -66 -226 38 -285 63 -35 107 -31 245 24 350 138 607 207 1019
271 122 18 224 34 229 34 18 0 3 41 -59 160 -82 157 -100 181 -140 184 -17 1
-100 -10 -185 -25z"/>
<path d="M3735 6955 c-5 -2 -22 -6 -38 -9 -44 -10 -90 -68 -150 -190 -110
-222 -182 -434 -232 -682 -38 -185 -40 -215 -40 -559 0 -336 3 -386 36 -543
135 -662 479 -1238 1064 -1783 258 -240 673 -539 1015 -732 293 -165 488 -261
525 -259 87 6 518 106 560 130 13 7 -24 26 -157 82 -330 140 -735 354 -1024
541 -424 274 -737 546 -1056 917 -92 107 -236 321 -319 477 -131 245 -243 593
-274 855 -11 89 -13 477 -4 575 27 275 119 586 248 843 57 114 68 161 47 216
-19 49 -69 104 -100 111 -43 8 -91 13 -101 10z"/>
<path d="M8618 6425 c-1 -1 -43 -6 -93 -10 -49 -3 -101 -8 -115 -10 -14 -2
-56 -6 -95 -10 -232 -20 -426 -52 -585 -96 -290 -80 -477 -172 -616 -301 -154
-145 -224 -311 -224 -536 0 -228 51 -351 206 -504 88 -86 122 -111 214 -157
154 -78 287 -117 510 -150 124 -18 171 -23 360 -36 112 -8 470 -17 470 -12 0
3 11 47 25 99 35 133 63 268 56 272 -3 2 -100 4 -216 5 -421 3 -573 14 -755
53 -254 54 -417 153 -487 296 -22 46 -25 62 -21 125 16 241 255 416 708 516
47 11 103 22 125 26 153 23 240 35 310 41 44 3 88 8 98 10 10 2 62 6 115 9
120 8 124 9 118 37 -55 250 -88 351 -108 333z"/>
<path d="M6464 6381 c-45 -21 -209 -178 -277 -268 -211 -276 -277 -664 -173
-1007 29 -94 107 -255 164 -340 99 -146 261 -313 407 -420 22 -17 42 -33 45
-36 3 -3 34 -24 70 -47 276 -175 594 -280 1145 -378 27 -5 256 -39 330 -50 17
-2 58 -7 92 -11 l62 -6 101 206 c56 113 100 211 98 218 -2 6 -17 12 -34 14
-16 1 -83 4 -149 8 -115 6 -144 8 -265 21 -108 11 -277 37 -395 61 -635 129
-1061 370 -1250 709 -73 130 -101 249 -98 423 2 104 16 166 59 260 44 98 103
177 212 290 54 55 95 106 102 127 12 38 6 115 -12 149 -40 75 -154 112 -234
77z"/>
<path d="M8043 5670 c-75 -8 -104 -26 -138 -85 -55 -93 -25 -201 70 -253 26
-15 81 -17 418 -20 l387 -4 0 187 0 186 -337 -3 c-186 -1 -366 -5 -400 -8z"/>
<path d="M4795 4320 c-98 -30 -149 -147 -106 -244 23 -53 106 -158 224 -283
520 -550 1191 -980 1924 -1233 l114 -40 77 42 c141 76 342 205 342 218 0 4
-37 17 -82 29 -548 147 -1117 423 -1563 759 -225 170 -477 404 -668 622 -48
55 -101 107 -118 115 -38 20 -105 27 -144 15z"/>
<path d="M7005 3700 c-119 -26 -185 -147 -137 -251 29 -61 41 -74 92 -97 108
-49 462 -168 675 -227 l130 -35 93 97 c113 118 202 218 202 226 0 3 -19 8 -42
12 -123 20 -484 120 -763 211 -241 79 -214 72 -250 64z"/>
</g>
</svg>
